<svg xmlns="http://www.w3.org/2000/svg" viewBox="0 0 96 96" fill="none">
  <rect width="96" height="96" rx="28" fill="#08111B" />
  <rect x="10" y="10" width="76" height="76" rx="22" fill="url(#paint0_linear)" fill-opacity="0.18" stroke="url(#paint1_linear)" />
  <path d="M28 65V31H43.764C52.25 31 57.44 35.884 57.44 43.356C57.44 50.828 52.25 55.712 43.764 55.712H35.684V65H28ZM35.684 49.476H43.044C47.366 49.476 49.716 47.238 49.716 43.356C49.716 39.418 47.366 37.236 43.044 37.236H35.684V49.476Z" fill="#ECF4FF"/>
  <path d="M60.14 65V31H67.824V58.484H82V65H60.14Z" fill="#ECF4FF"/>
  <defs>
    <linearGradient id="paint0_linear" x1="18" y1="14" x2="79" y2="84" gradientUnits="userSpaceOnUse">
      <stop stop-color="#4DD0E1"/>
      <stop offset="1" stop-color="#FFB454"/>
    </linearGradient>
    <linearGradient id="paint1_linear" x1="15" y1="12" x2="85" y2="83" gradientUnits="userSpaceOnUse">
      <stop stop-color="#4DD0E1"/>
      <stop offset="1" stop-color="#FFD59B"/>
    </linearGradient>
  </defs>
</svg>
